<?xml version="1.0" standalone="no"?>
<!DOCTYPE svg PUBLIC "-//W3C//DTD SVG 20010904//EN"
 "http://www.w3.org/TR/2001/REC-SVG-20010904/DTD/svg10.dtd">
<svg version="1.0" xmlns="http://www.w3.org/2000/svg"
 width="396.000000pt" height="396.000000pt" viewBox="0 0 396.000000 396.000000"
 preserveAspectRatio="xMidYMid meet">
<metadata>
Created by potrace 1.11, written by Peter Selinger 2001-2013
</metadata>
<g transform="translate(0.000000,396.000000) scale(0.100000,-0.100000)"
fill="#000000" stroke="none">
<path d="M1767 3465 c-561 -80 -1035 -479 -1212 -1019 -55 -167 -69 -265 -69
-466 0 -201 14 -299 69 -466 148 -452 507 -811 959 -959 167 -55 265 -69 466
-69 201 0 299 14 466 69 520 170 911 619 1011 1159 23 125 23 407 0 532 -100
540 -491 989 -1011 1159 -59 19 -147 42 -194 51 -122 22 -364 27 -485 9z m923
-604 c43 -31 70 -80 70 -128 0 -146 -174 -215 -270 -107 -17 20 -33 49 -37 65
-3 15 -13 31 -22 33 -37 11 -304 66 -306 64 -3 -5 -95 -444 -95 -455 0 -6 35
-13 78 -16 149 -12 372 -86 471 -157 l30 -20 36 24 c104 71 251 30 309 -85 17
-34 26 -69 26 -99 0 -64 -41 -144 -92 -177 -37 -25 -39 -29 -33 -63 8 -47 -17
-165 -48 -227 -96 -189 -323 -335 -606 -390 -114 -22 -328 -22 -442 0 -294 57
-524 210 -613 408 -29 65 -50 170 -42 214 6 29 2 35 -33 58 -50 33 -91 113
-91 177 0 98 82 198 177 216 50 9 117 -4 157 -31 l35 -24 57 34 c125 76 300
130 458 143 l80 7 58 270 c31 149 57 271 58 271 3 14 64 7 216 -26 l185 -39
31 34 c16 19 44 39 62 45 41 12 105 4 136 -19z"/>
<path d="M1575 1966 c-93 -42 -122 -160 -58 -237 72 -85 196 -77 250 17 42 73
23 154 -48 207 -34 25 -105 31 -144 13z"/>
<path d="M2270 1969 c-90 -37 -125 -140 -77 -223 42 -73 141 -99 207 -53 55
37 75 72 75 132 0 57 -18 91 -67 128 -30 23 -103 31 -138 16z"/>
<path d="M1610 1465 c-19 -23 -8 -47 38 -82 75 -57 164 -78 332 -78 123 0 156
3 217 23 121 38 194 112 142 145 -13 8 -28 3 -64 -21 -85 -56 -133 -67 -300
-67 -163 1 -220 14 -295 70 -39 29 -53 31 -70 10z"/>
</g>
</svg>
